# xmcd
#
# Track frame offsets: 
#        150
#        12954
#        29155
#        41099
#        54490
#        67390
#        80678
#        93452
#        107133
#        121797
#        137320
#        151643
#        163099
#        173813
#        191716
#        208596
#        221969
#        235760
#        252321
#        264292
#
# Disc length: 3710 seconds
#
# Revision: 0
# Processed by: cddbd v1.5.2PL0 Copyright (c) Steve Scherf et al.
# Submitted via: ExactAudioCopyFreeDBPlugin 1.0
#
DISCID=1e0e7c14
DTITLE=Plava Trava Zaborava - The Ultimate Collection CD-1
DYEAR=2009
DGENRE=Country
TTITLE0=Corina Corina
TTITLE1=Voila, An American Dream
TTITLE2=I'm Ready To Go
TTITLE3=Evangeline
TTITLE4=Shot Full Of Love
TTITLE5=Get Back To The Country
TTITLE6=Children, Go Where I Send Thee
TTITLE7=Ring Of Fire
TTITLE8=Dance, Dance,Dance
TTITLE9=Oh, Mary Anne
TTITLE10=Julie
TTITLE11=I've Got A Girl
TTITLE12=Amorcito
TTITLE13=Ramblin' Man
TTITLE14=It Feels So Good
TTITLE15=Crying
TTITLE16=Steppin' Out
TTITLE17=Hearts On Fire
TTITLE18=I Miss You Girl
TTITLE19=City Streets
EXTD=
EXTT0=
EXTT1=
EXTT2=
EXTT3=
EXTT4=
EXTT5=
EXTT6=
EXTT7=
EXTT8=
EXTT9=
EXTT10=
EXTT11=
EXTT12=
EXTT13=
EXTT14=
EXTT15=
EXTT16=
EXTT17=
EXTT18=
EXTT19=
PLAYORDER=
